<svg id="Capa_1" enable-background="new 0 0 510 510" viewBox="0 0 510 510"
  xmlns="http://www.w3.org/2000/svg">
  <g id="XMLID_150_">
    <path id="XMLID_175_" d="m255 180.798c-41.355 0-75 33.645-75 75 3.77 99.361 146.245 99.334 150-.001 0-41.354-33.645-74.999-75-74.999zm0 120c-24.813 0-45-20.186-45-45 2.262-59.617 87.747-59.6 90 .001 0 24.813-20.186 44.999-45 44.999z" fill="#000000" style="fill: rgb(113, 0, 173);"></path>
    <path id="XMLID_174_" d="m102.579 255.786c11.493 10.754 31.787 28.247 56.923 43.637-12.684-27.656-12.68-59.668.042-87.338-25.172 15.399-45.472 32.924-56.965 43.701z" fill="#000000" style="fill: rgb(113, 0, 173);"></path>
    <path id="XMLID_156_" d="m255 .798c-140.931 0-255 114.05-255 255 12.343 337.907 497.698 337.837 510-.003 0-140.927-114.049-254.997-255-254.997zm97.217 85.297 24.811 16.865-25.298 37.216-24.811-16.865zm-112.217-25.297h30v45h-30zm-82.216 25.297 25.297 37.216-24.811 16.865-25.297-37.216zm0 339.406-24.811-16.865 25.297-37.217 24.811 16.865zm112.216 25.297h-30v-45h30zm82.217-25.297-25.298-37.217 24.811-16.865 25.298 37.217zm-97.217-64.703c-102.138 0-193.915-104.756-194.209-105 129.756-138.568 259.844-137.668 388.419 0-.155.128-92.275 105-194.21 105z" fill="#000000" style="fill: rgb(113, 0, 173);"></path>
    <path id="XMLID_155_" d="m255 240.798c-8.271 0-15 6.729-15 15 .754 19.872 29.25 19.867 30 0 0-8.271-6.728-15-15-15z" fill="#000000" style="fill: rgb(113, 0, 173);"></path>
    <path id="XMLID_151_" d="m350.499 299.423c25.124-15.383 45.411-32.867 56.91-43.624-11.498-10.757-31.786-28.242-56.91-43.624 12.447 27.139 12.897 59.127 0 87.248z" fill="#000000" style="fill: rgb(113, 0, 173);"></path>
  </g>
</svg>